<svg id="SvgjsSvg2177" width="403" height="150" xmlns="http://www.w3.org/2000/svg" version="1.1" xmlns:xlink="http://www.w3.org/1999/xlink" xmlns:svgjs="http://svgjs.dev" class="apexcharts-svg" xmlns:data="ApexChartsNS" transform="translate(0, 0)" style="background: transparent;"><g id="SvgjsG2179" class="apexcharts-inner apexcharts-graphical" transform="translate(0, 0)"><defs id="SvgjsDefs2178"><clipPath id="gridRectMask1mcphay8k"><rect id="SvgjsRect2182" width="410" height="153" x="-3.5" y="-1.5" rx="0" ry="0" opacity="1" stroke-width="0" stroke="none" stroke-dasharray="0" fill="#fff"></rect></clipPath><clipPath id="forecastMask1mcphay8k"></clipPath><clipPath id="nonForecastMask1mcphay8k"></clipPath><clipPath id="gridRectMarkerMask1mcphay8k"><rect id="SvgjsRect2183" width="407" height="154" x="-2" y="-2" rx="0" ry="0" opacity="1" stroke-width="0" stroke="none" stroke-dasharray="0" fill="#fff"></rect></clipPath></defs><g id="SvgjsG2207" class="apexcharts-xaxis" transform="translate(0, 0)"><g id="SvgjsG2208" class="apexcharts-xaxis-texts-g" transform="translate(0, -4)"></g></g><g id="SvgjsG2190" class="apexcharts-grid"><g id="SvgjsG2191" class="apexcharts-gridlines-horizontal" style="display: none;"><line id="SvgjsLine2195" x1="0" y1="15" x2="403" y2="15" stroke="#e0e0e0" stroke-dasharray="0" stroke-linecap="butt" class="apexcharts-gridline"></line><line id="SvgjsLine2196" x1="0" y1="30" x2="403" y2="30" stroke="#e0e0e0" stroke-dasharray="0" stroke-linecap="butt" class="apexcharts-gridline"></line><line id="SvgjsLine2197" x1="0" y1="45" x2="403" y2="45" stroke="#e0e0e0" stroke-dasharray="0" stroke-linecap="butt" class="apexcharts-gridline"></line><line id="SvgjsLine2198" x1="0" y1="60" x2="403" y2="60" stroke="#e0e0e0" stroke-dasharray="0" stroke-linecap="butt" class="apexcharts-gridline"></line><line id="SvgjsLine2199" x1="0" y1="75" x2="403" y2="75" stroke="#e0e0e0" stroke-dasharray="0" stroke-linecap="butt" class="apexcharts-gridline"></line><line id="SvgjsLine2200" x1="0" y1="90" x2="403" y2="90" stroke="#e0e0e0" stroke-dasharray="0" stroke-linecap="butt" class="apexcharts-gridline"></line><line id="SvgjsLine2201" x1="0" y1="105" x2="403" y2="105" stroke="#e0e0e0" stroke-dasharray="0" stroke-linecap="butt" class="apexcharts-gridline"></line><line id="SvgjsLine2202" x1="0" y1="120" x2="403" y2="120" stroke="#e0e0e0" stroke-dasharray="0" stroke-linecap="butt" class="apexcharts-gridline"></line><line id="SvgjsLine2203" x1="0" y1="135" x2="403" y2="135" stroke="#e0e0e0" stroke-dasharray="0" stroke-linecap="butt" class="apexcharts-gridline"></line></g><g id="SvgjsG2192" class="apexcharts-gridlines-vertical" style="display: none;"></g><line id="SvgjsLine2206" x1="0" y1="150" x2="403" y2="150" stroke="transparent" stroke-dasharray="0" stroke-linecap="butt"></line><line id="SvgjsLine2205" x1="0" y1="1" x2="0" y2="150" stroke="transparent" stroke-dasharray="0" stroke-linecap="butt"></line></g><g id="SvgjsG2184" class="apexcharts-area-series apexcharts-plot-series"><g id="SvgjsG2185" class="apexcharts-series" seriesName="NetxProfit" data:longestSeries="true" rel="1" data:realIndex="0"><path id="SvgjsPath2188" d="M 0 150 L 0 112.5C 28.209999999999997 112.5 52.39 87.5 80.6 87.5C 108.80999999999999 87.5 132.98999999999998 112.5 161.2 112.5C 189.41 112.5 213.58999999999997 50 241.79999999999998 50C 270.01 50 294.19 100 322.4 100C 350.60999999999996 100 374.79 25 403 25C 403 25 403 25 403 150M 403 25z" fill="rgba(241,250,255,1)" fill-opacity="1" stroke-opacity="1" stroke-linecap="butt" stroke-width="0" stroke-dasharray="0" class="apexcharts-area" index="0" clip-path="url(#gridRectMask1mcphay8k)" pathTo="M 0 150 L 0 112.5C 28.209999999999997 112.5 52.39 87.5 80.6 87.5C 108.80999999999999 87.5 132.98999999999998 112.5 161.2 112.5C 189.41 112.5 213.58999999999997 50 241.79999999999998 50C 270.01 50 294.19 100 322.4 100C 350.60999999999996 100 374.79 25 403 25C 403 25 403 25 403 150M 403 25z" pathFrom="M -1 150 L -1 150 L 80.6 150 L 161.2 150 L 241.79999999999998 150 L 322.4 150 L 403 150"></path><path id="SvgjsPath2189" d="M 0 112.5C 28.209999999999997 112.5 52.39 87.5 80.6 87.5C 108.80999999999999 87.5 132.98999999999998 112.5 161.2 112.5C 189.41 112.5 213.58999999999997 50 241.79999999999998 50C 270.01 50 294.19 100 322.4 100C 350.60999999999996 100 374.79 25 403 25" fill="none" fill-opacity="1" stroke="#009ef7" stroke-opacity="1" stroke-linecap="butt" stroke-width="3" stroke-dasharray="0" class="apexcharts-area" index="0" clip-path="url(#gridRectMask1mcphay8k)" pathTo="M 0 112.5C 28.209999999999997 112.5 52.39 87.5 80.6 87.5C 108.80999999999999 87.5 132.98999999999998 112.5 161.2 112.5C 189.41 112.5 213.58999999999997 50 241.79999999999998 50C 270.01 50 294.19 100 322.4 100C 350.60999999999996 100 374.79 25 403 25" pathFrom="M -1 150 L -1 150 L 80.6 150 L 161.2 150 L 241.79999999999998 150 L 322.4 150 L 403 150" fill-rule="evenodd"></path><g id="SvgjsG2186" class="apexcharts-series-markers-wrap" data:realIndex="0"><g class="apexcharts-series-markers"><circle id="SvgjsCircle2221" r="0" cx="0" cy="0" class="apexcharts-marker wgx3xropb no-pointer-events" stroke="#009ef7" fill="#f1faff" fill-opacity="1" stroke-width="3" stroke-opacity="0.9" default-marker-size="0"></circle></g></g></g><g id="SvgjsG2187" class="apexcharts-datalabels" data:realIndex="0"></g></g><g id="SvgjsG2193" class="apexcharts-grid-borders" style="display: none;"><line id="SvgjsLine2194" x1="0" y1="0" x2="403" y2="0" stroke="#e0e0e0" stroke-dasharray="0" stroke-linecap="butt" class="apexcharts-gridline"></line><line id="SvgjsLine2204" x1="0" y1="150" x2="403" y2="150" stroke="#e0e0e0" stroke-dasharray="0" stroke-linecap="butt" class="apexcharts-gridline"></line></g><line id="SvgjsLine2216" x1="0" y1="0" x2="403" y2="0" stroke="#b6b6b6" stroke-dasharray="0" stroke-width="1" stroke-linecap="butt" class="apexcharts-ycrosshairs"></line><line id="SvgjsLine2217" x1="0" y1="0" x2="403" y2="0" stroke-dasharray="0" stroke-width="0" stroke-linecap="butt" class="apexcharts-ycrosshairs-hidden"></line><g id="SvgjsG2218" class="apexcharts-yaxis-annotations"></g><g id="SvgjsG2219" class="apexcharts-xaxis-annotations"></g><g id="SvgjsG2220" class="apexcharts-point-annotations"></g></g><g id="SvgjsG2215" class="apexcharts-yaxis" rel="0" transform="translate(-18, 0)"></g><g id="SvgjsG2180" class="apexcharts-annotations"></g></svg>